<svg xmlns="http://www.w3.org/2000/svg" width="51.656" height="50.13" viewBox="0 0 51.656 50.13">
  <g id="Logo" transform="translate(-39 14.065)">
    <g id="Logo_atlas_voyages" data-name="Logo atlas voyages" transform="translate(-341.067 -277.597)">
      <rect id="Rectangle_541" data-name="Rectangle 541" width="1.669" height="8.633" transform="translate(403.855 263.531)" fill="#fff"/>
      <path id="Tracé_442" data-name="Tracé 442" d="M417.407,272.5a1.839,1.839,0,0,1-.323.161,2.745,2.745,0,0,1-.448.114l-.38.07a2.5,2.5,0,0,0-.767.228.762.762,0,0,0-.394.709.741.741,0,0,0,.24.618.916.916,0,0,0,.586.19,1.744,1.744,0,0,0,1.008-.316,1.339,1.339,0,0,0,.478-1.154Zm-1.02-.779a2.637,2.637,0,0,0,.666-.147.5.5,0,0,0,.36-.474.561.561,0,0,0-.276-.542,1.742,1.742,0,0,0-.811-.15,1.063,1.063,0,0,0-.849.293,1.207,1.207,0,0,0-.237.585h-1.61a2.439,2.439,0,0,1,.47-1.376,2.743,2.743,0,0,1,2.282-.843,4.068,4.068,0,0,1,1.87.416,1.6,1.6,0,0,1,.818,1.57v2.928q0,.3.012.738a.915.915,0,0,0,.1.445.592.592,0,0,0,.245.193v.246h-1.815a1.847,1.847,0,0,1-.106-.363c-.02-.113-.035-.242-.047-.386a3.46,3.46,0,0,1-.8.638,2.424,2.424,0,0,1-1.226.31,2.113,2.113,0,0,1-1.44-.495,1.759,1.759,0,0,1-.569-1.4,1.819,1.819,0,0,1,.915-1.7,4.081,4.081,0,0,1,1.475-.41Z" transform="translate(-20.727 -3.441)" fill="#fff"/>
      <path id="Tracé_443" data-name="Tracé 443" d="M430.487,267.892V266.7h.89v-1.78h1.652v1.78h1.037v1.189h-1.037v3.374a.762.762,0,0,0,.1.489,1.1,1.1,0,0,0,.609.1l.161,0c.057,0,.112,0,.167-.009v1.248l-.791.029a2.122,2.122,0,0,1-1.616-.41,1.221,1.221,0,0,1-.281-.885v-3.93Z" transform="translate(-31.329 -0.865)" fill="#fff"/>
      <path id="Tracé_444" data-name="Tracé 444" d="M454.472,272.5a1.853,1.853,0,0,1-.324.161,2.754,2.754,0,0,1-.448.114l-.38.07a2.5,2.5,0,0,0-.768.228.762.762,0,0,0-.394.709.741.741,0,0,0,.241.618.916.916,0,0,0,.586.19,1.745,1.745,0,0,0,1.008-.316,1.34,1.34,0,0,0,.479-1.154Zm-1.021-.779a2.629,2.629,0,0,0,.667-.147.5.5,0,0,0,.36-.474.56.56,0,0,0-.276-.542,1.739,1.739,0,0,0-.81-.15,1.063,1.063,0,0,0-.849.293,1.2,1.2,0,0,0-.237.585h-1.611a2.442,2.442,0,0,1,.471-1.376,2.743,2.743,0,0,1,2.282-.843,4.07,4.07,0,0,1,1.87.416,1.6,1.6,0,0,1,.818,1.57v2.928q0,.3.012.738a.928.928,0,0,0,.1.445.6.6,0,0,0,.246.193v.246h-1.816a1.874,1.874,0,0,1-.105-.363q-.03-.17-.047-.386a3.453,3.453,0,0,1-.8.638,2.422,2.422,0,0,1-1.225.31,2.113,2.113,0,0,1-1.44-.495,1.76,1.76,0,0,1-.569-1.4,1.819,1.819,0,0,1,.915-1.7,4.084,4.084,0,0,1,1.475-.41Z" transform="translate(-43.758 -3.441)" fill="#fff"/>
      <path id="Tracé_445" data-name="Tracé 445" d="M469.924,273.518a1.111,1.111,0,0,0,.229.633,1.558,1.558,0,0,0,1.154.334,1.762,1.762,0,0,0,.785-.146.491.491,0,0,0,.057-.867,9.606,9.606,0,0,0-1.746-.5,3.622,3.622,0,0,1-1.533-.674,1.46,1.46,0,0,1-.445-1.148,1.989,1.989,0,0,1,.7-1.52,2.8,2.8,0,0,1,1.958-.635,3.6,3.6,0,0,1,1.952.478,2.044,2.044,0,0,1,.866,1.648h-1.669a.989.989,0,0,0-.182-.51,1.147,1.147,0,0,0-.94-.34,1.352,1.352,0,0,0-.778.17.488.488,0,0,0-.232.4.435.435,0,0,0,.246.416,10.714,10.714,0,0,0,1.743.463,3.192,3.192,0,0,1,1.5.709,1.608,1.608,0,0,1,.492,1.2,1.937,1.937,0,0,1-.707,1.549,4.251,4.251,0,0,1-4.413-.035,2.065,2.065,0,0,1-.719-1.619Z" transform="translate(-54.782 -3.392)" fill="#fff"/>
      <path id="Tracé_446" data-name="Tracé 446" d="M390.143,296.034h1.792l-2.305,6.384h-1.76l-2.289-6.384h1.874l1.329,4.709Z" transform="translate(-3.426 -20.196)" fill="#fff"/>
      <path id="Tracé_447" data-name="Tracé 447" d="M408.239,300.379a2.979,2.979,0,0,0,0-2.956,1.483,1.483,0,0,0-2.252,0,2.959,2.959,0,0,0,0,2.956,1.478,1.478,0,0,0,2.252,0m1.335.922a3.517,3.517,0,0,1-4.908,0,3.962,3.962,0,0,1,0-4.8,3.481,3.481,0,0,1,4.908,0,3.961,3.961,0,0,1,0,4.8" transform="translate(-14.783 -19.86)" fill="#fff"/>
      <path id="Tracé_448" data-name="Tracé 448" d="M423.447,303.642l.211.012a2.637,2.637,0,0,0,.468-.017.845.845,0,0,0,.375-.135.9.9,0,0,0,.273-.416,1.007,1.007,0,0,0,.108-.387l-2.346-6.665h1.856l1.394,4.709,1.318-4.709h1.775l-2.189,6.279a8.844,8.844,0,0,1-1,2.252,1.908,1.908,0,0,1-1.478.437q-.223,0-.358,0t-.4-.02Z" transform="translate(-26.389 -20.196)" fill="#fff"/>
      <path id="Tracé_449" data-name="Tracé 449" d="M444.765,299.064a1.85,1.85,0,0,1-.324.161,2.769,2.769,0,0,1-.448.114l-.38.07a2.506,2.506,0,0,0-.768.228.763.763,0,0,0-.394.709.741.741,0,0,0,.241.618.916.916,0,0,0,.586.19,1.745,1.745,0,0,0,1.008-.316,1.34,1.34,0,0,0,.479-1.154Zm-1.021-.779a2.625,2.625,0,0,0,.667-.147.5.5,0,0,0,.36-.474.56.56,0,0,0-.276-.541,1.739,1.739,0,0,0-.81-.15,1.063,1.063,0,0,0-.849.293,1.2,1.2,0,0,0-.237.585h-1.611a2.442,2.442,0,0,1,.471-1.376,2.743,2.743,0,0,1,2.282-.843,4.071,4.071,0,0,1,1.871.416,1.6,1.6,0,0,1,.817,1.57v2.928q0,.3.012.738a.923.923,0,0,0,.1.445.6.6,0,0,0,.246.193v.246h-1.816a1.871,1.871,0,0,1-.105-.363c-.02-.113-.035-.242-.047-.386a3.451,3.451,0,0,1-.8.638,2.423,2.423,0,0,1-1.225.31,2.114,2.114,0,0,1-1.44-.495,1.759,1.759,0,0,1-.568-1.4,1.818,1.818,0,0,1,.914-1.7,4.081,4.081,0,0,1,1.475-.41Z" transform="translate(-37.726 -19.946)" fill="#fff"/>
      <path id="Tracé_450" data-name="Tracé 450" d="M462.659,300.355a2.053,2.053,0,0,0,.4-1.408,2.161,2.161,0,0,0-.382-1.382,1.245,1.245,0,0,0-1.023-.474,1.206,1.206,0,0,0-1.207.826,2.939,2.939,0,0,0-.175,1.084,2.487,2.487,0,0,0,.186.99,1.217,1.217,0,0,0,1.214.808,1.282,1.282,0,0,0,.986-.442m-.569-4.577a2,2,0,0,1,.983.925v-.92H464.7v6.056a3.4,3.4,0,0,1-.416,1.862,3.061,3.061,0,0,1-2.741,1.078,3.732,3.732,0,0,1-2-.48,1.771,1.771,0,0,1-.855-1.435h1.816a.751.751,0,0,0,.229.421,1.41,1.41,0,0,0,.908.229,1.22,1.22,0,0,0,1.207-.6,3.059,3.059,0,0,0,.2-1.3v-.41a2.031,2.031,0,0,1-.515.615,2.073,2.073,0,0,1-1.294.381,2.449,2.449,0,0,1-1.965-.864,3.493,3.493,0,0,1-.735-2.34,3.949,3.949,0,0,1,.708-2.393,2.338,2.338,0,0,1,2.006-.969,2.192,2.192,0,0,1,.836.147" transform="translate(-48.76 -19.946)" fill="#fff"/>
      <path id="Tracé_451" data-name="Tracé 451" d="M479.8,297.326a1.726,1.726,0,0,0-.445.988h2.876a1.394,1.394,0,0,0-.445-1.009,1.461,1.461,0,0,0-.99-.344,1.321,1.321,0,0,0-1,.365m2.5-1.442a2.6,2.6,0,0,1,1.1.944,3.148,3.148,0,0,1,.509,1.32,8.209,8.209,0,0,1,.054,1.267h-4.65a1.532,1.532,0,0,0,.667,1.347,1.7,1.7,0,0,0,.92.24,1.3,1.3,0,0,0,1.271-.732h1.7a2.086,2.086,0,0,1-.619,1.154,3.1,3.1,0,0,1-2.4.931,3.481,3.481,0,0,1-2.249-.785,3.094,3.094,0,0,1-.975-2.556,3.457,3.457,0,0,1,.88-2.544,3.079,3.079,0,0,1,2.283-.885,3.635,3.635,0,0,1,1.5.3" transform="translate(-60.621 -19.917)" fill="#fff"/>
      <path id="Tracé_452" data-name="Tracé 452" d="M497.251,300.081a1.111,1.111,0,0,0,.229.633,1.558,1.558,0,0,0,1.154.334,1.763,1.763,0,0,0,.785-.146.491.491,0,0,0,.057-.867,9.614,9.614,0,0,0-1.746-.5,3.621,3.621,0,0,1-1.533-.674,1.46,1.46,0,0,1-.445-1.148,1.988,1.988,0,0,1,.7-1.519,2.8,2.8,0,0,1,1.958-.636,3.6,3.6,0,0,1,1.952.477,2.044,2.044,0,0,1,.866,1.649h-1.669a.986.986,0,0,0-.182-.51,1.147,1.147,0,0,0-.939-.34,1.354,1.354,0,0,0-.779.17.488.488,0,0,0-.232.4.435.435,0,0,0,.246.416,10.7,10.7,0,0,0,1.743.463,3.191,3.191,0,0,1,1.5.709,1.608,1.608,0,0,1,.492,1.2,1.938,1.938,0,0,1-.707,1.549,4.251,4.251,0,0,1-4.413-.035,2.065,2.065,0,0,1-.719-1.62Z" transform="translate(-71.762 -19.898)" fill="#fff"/>
      <path id="Tracé_453" data-name="Tracé 453" d="M405.9,353.543a25.828,25.828,0,0,0,25.828-25.828H380.067A25.828,25.828,0,0,0,405.9,353.543" transform="translate(0 -39.881)" fill="#fff"/>
    </g>
  </g>
</svg>
