<svg id="aeroplane" xmlns="http://www.w3.org/2000/svg" width="17.487" height="14.469" viewBox="0 0 17.487 14.469">
  <g id="Group_233" data-name="Group 233" transform="translate(5.831)">
    <g id="Group_232" data-name="Group 232" transform="translate(0 0)">
      <path id="Path_149" data-name="Path 149" d="M135.412,32.262a1.04,1.04,0,0,0-.674-.144,2.683,2.683,0,0,0-1.2.505q-.469.361-1.083.866l-.578.505c-.12.12-.241.217-.361.337a.419.419,0,0,1-.361.12c-.072-.024-.168-.048-.265-.072l-4.5-1.685c-.144-.048-.289-.1-.457-.144a.758.758,0,0,0-.722.12,2.15,2.15,0,0,0-.626.7.569.569,0,0,0,.12.77,1.756,1.756,0,0,0,.265.217c.818.578,1.66,1.131,2.479,1.709a3.823,3.823,0,0,1,.818.674c.048.072.1.12.144.193l-1.564,1.492c-.168.168-.337.313-.505.481-.024,0-.048-.024-.072-.024L126,38.76c-.217-.1-.409-.217-.626-.313a.694.694,0,0,0-.77.1,4.622,4.622,0,0,0-.361.337.5.5,0,0,0-.048.722,1.046,1.046,0,0,0,.144.168l.457.578c.529.7,1.083,1.4,1.636,2.07a.791.791,0,0,0,.77.313.9.9,0,0,0,.6-.578,1.12,1.12,0,0,0,.024-.794l-.048-.217-.144-.578c.65-.505,1.3-.987,1.925-1.492l.313-.241.072.12a3.717,3.717,0,0,1,.409.818l1.107,2.84c.072.168.12.337.193.481a.607.607,0,0,0,.553.409.641.641,0,0,0,.289-.072.484.484,0,0,0,.193-.1,1.269,1.269,0,0,0,.722-.818,1.992,1.992,0,0,0,.024-.746l-.578-4.211c-.048-.337-.1-.7-.144-1.035a.343.343,0,0,1,.144-.361l.505-.433c.409-.337.794-.674,1.2-1.011a3.909,3.909,0,0,0,.746-.842,2.527,2.527,0,0,0,.361-.77A.72.72,0,0,0,135.412,32.262Zm-.193.746a2.709,2.709,0,0,1-.313.65,2.934,2.934,0,0,1-.65.722c-.385.337-.794.674-1.2,1.011l-.481.409a.823.823,0,0,0-.337.818c.048.337.1.674.144,1.035l.578,4.211a1.334,1.334,0,0,1-.024.553.851.851,0,0,1-.457.505,1.173,1.173,0,0,1-.168.072c-.144.048-.193.024-.241-.1-.072-.144-.12-.313-.193-.481l-1.059-2.84a6.22,6.22,0,0,0-.457-.89l-.144-.241L130,38.134l-.746.553c-.674.505-1.348,1.035-2,1.54a.3.3,0,0,0-.12.361c.048.217.12.433.168.65l.048.217a.717.717,0,0,1-.024.505.509.509,0,0,1-.337.289.243.243,0,0,1-.12-.048.29.29,0,0,1-.12-.12c-.553-.7-1.083-1.372-1.612-2.07l-.457-.578a1.019,1.019,0,0,1-.12-.168.075.075,0,0,1-.024-.048l.048-.048a3.419,3.419,0,0,1,.313-.289.216.216,0,0,1,.265-.024c.217.1.409.193.626.313l.265.12.144.072a.331.331,0,0,0,.385-.048c.193-.193.385-.361.578-.553l1.66-1.564.193-.193-.12-.168c-.024-.048-.048-.072-.072-.12a2.516,2.516,0,0,0-.193-.265,3.988,3.988,0,0,0-.914-.77c-.818-.553-1.66-1.131-2.479-1.709a1.322,1.322,0,0,1-.217-.168c-.072-.072-.072-.1-.024-.144a2,2,0,0,1,.529-.578c.048-.048.12-.072.289-.024a4.545,4.545,0,0,1,.433.144l4.5,1.685a2.469,2.469,0,0,0,.337.1.868.868,0,0,0,.746-.217c.12-.12.241-.217.361-.337l.578-.505c.409-.337.746-.626,1.059-.866a2.11,2.11,0,0,1,.987-.409.459.459,0,0,1,.313.048C135.22,32.72,135.268,32.864,135.22,33.008Z" transform="translate(-124.068 -32.112)" fill="#1c4da1"/>
    </g>
  </g>
  <g id="Group_235" data-name="Group 235" transform="translate(0 9.157)">
    <g id="Group_234" data-name="Group 234" transform="translate(0)">
      <path id="Path_150" data-name="Path 150" d="M6.395,227.021a.259.259,0,0,0-.337-.048L.09,231.521a.259.259,0,0,0-.048.337.219.219,0,0,0,.193.1.342.342,0,0,0,.144-.048l5.968-4.548A.232.232,0,0,0,6.395,227.021Z" transform="translate(0 -226.931)" fill="#1c4da1"/>
    </g>
  </g>
  <g id="Group_237" data-name="Group 237" transform="translate(3.104 10.288)">
    <g id="Group_236" data-name="Group 236">
      <path id="Path_151" data-name="Path 151" d="M70.133,251.085a.292.292,0,0,0-.361-.048l-3.634,2.791a.259.259,0,0,0-.048.337.219.219,0,0,0,.193.1.342.342,0,0,0,.144-.048l3.658-2.791A.259.259,0,0,0,70.133,251.085Z" transform="translate(-66.048 -250.995)" fill="#1c4da1"/>
    </g>
  </g>
  <g id="Group_239" data-name="Group 239" transform="translate(1.877 13.536)">
    <g id="Group_238" data-name="Group 238" transform="translate(0 0)">
      <path id="Path_152" data-name="Path 152" d="M40.965,320.205a.259.259,0,0,0-.337-.048l-.6.457a.259.259,0,0,0-.048.337.219.219,0,0,0,.193.1.342.342,0,0,0,.144-.048l.6-.457A.259.259,0,0,0,40.965,320.205Z" transform="translate(-39.936 -320.115)" fill="#1c4da1"/>
    </g>
  </g>
  <g id="Group_241" data-name="Group 241" transform="translate(1.083 10.841)">
    <g id="Group_240" data-name="Group 240" transform="translate(0 0)">
      <path id="Path_153" data-name="Path 153" d="M24.069,262.861a.259.259,0,0,0-.337-.048l-.6.457a.259.259,0,0,0-.048.337.219.219,0,0,0,.193.1.342.342,0,0,0,.144-.048l.6-.457A.259.259,0,0,0,24.069,262.861Z" transform="translate(-23.04 -262.771)" fill="#1c4da1"/>
    </g>
  </g>
  <g id="Group_243" data-name="Group 243" transform="translate(2.31 8.218)">
    <g id="Group_242" data-name="Group 242" transform="translate(0 0)">
      <path id="Path_154" data-name="Path 154" d="M52.443,207.053a.259.259,0,0,0-.337-.048l-2.864,2.166a.259.259,0,0,0-.048.337.3.3,0,0,0,.193.1.342.342,0,0,0,.144-.048l2.864-2.166A.259.259,0,0,0,52.443,207.053Z" transform="translate(-49.152 -206.963)" fill="#1c4da1"/>
    </g>
  </g>
</svg>
