<svg xmlns="http://www.w3.org/2000/svg" width="20.686" height="20.686" viewBox="0 0 20.686 20.686">
  <g id="review" transform="translate(0 0)">
    <path id="Path_168" data-name="Path 168" d="M216,320h.69v.69H216Z" transform="translate(-207.381 -306.899)" fill="#1c4da1"/>
    <path id="Path_169" data-name="Path 169" d="M248,320h.69v.69H248Z" transform="translate(-238.002 -306.899)" fill="#1c4da1"/>
    <path id="Path_170" data-name="Path 170" d="M280,320h.69v.69H280Z" transform="translate(-268.622 -306.899)" fill="#1c4da1"/>
    <path id="Path_171" data-name="Path 171" d="M216,352h.69v.69H216Z" transform="translate(-207.381 -337.519)" fill="#1c4da1"/>
    <path id="Path_172" data-name="Path 172" d="M248,352h.69v.69H248Z" transform="translate(-238.002 -337.519)" fill="#1c4da1"/>
    <path id="Path_173" data-name="Path 173" d="M280,352h.69v.69H280Z" transform="translate(-268.622 -337.519)" fill="#1c4da1"/>
    <path id="Path_174" data-name="Path 174" d="M216,384h.69v.69H216Z" transform="translate(-207.381 -368.14)" fill="#1c4da1"/>
    <path id="Path_175" data-name="Path 175" d="M248,384h.69v.69H248Z" transform="translate(-238.002 -368.14)" fill="#1c4da1"/>
    <path id="Path_176" data-name="Path 176" d="M280,384h.69v.69H280Z" transform="translate(-268.622 -368.14)" fill="#1c4da1"/>
    <path id="Path_177" data-name="Path 177" d="M216,256h.69v.69H216Z" transform="translate(-207.381 -245.657)" fill="#1c4da1"/>
    <path id="Path_178" data-name="Path 178" d="M248,256h.69v.69H248Z" transform="translate(-238.002 -245.657)" fill="#1c4da1"/>
    <path id="Path_179" data-name="Path 179" d="M280,256h.69v.69H280Z" transform="translate(-268.622 -245.657)" fill="#1c4da1"/>
    <path id="Path_180" data-name="Path 180" d="M216,288h.69v.69H216Z" transform="translate(-207.381 -276.278)" fill="#1c4da1"/>
    <path id="Path_181" data-name="Path 181" d="M248,288h.69v.69H248Z" transform="translate(-238.002 -276.278)" fill="#1c4da1"/>
    <path id="Path_182" data-name="Path 182" d="M280,288h.69v.69H280Z" transform="translate(-268.622 -276.278)" fill="#1c4da1"/>
    <path id="Path_183" data-name="Path 183" d="M175.554,18.863l1.434,1.4-.338,1.973a.345.345,0,0,0,.5.363l1.772-.932,1.772.932a.345.345,0,0,0,.5-.363l-.338-1.973,1.434-1.4a.345.345,0,0,0-.191-.588l-1.981-.288-.886-1.8a.345.345,0,0,0-.618,0l-.886,1.8-1.981.288a.345.345,0,0,0-.191.588Zm2.451-.22a.345.345,0,0,0,.26-.189l.657-1.331.657,1.331a.345.345,0,0,0,.26.189l1.469.213-1.063,1.036a.345.345,0,0,0-.1.305l.251,1.463-1.314-.691a.345.345,0,0,0-.321,0l-1.314.691L177.7,20.2a.345.345,0,0,0-.1-.305l-1.063-1.036Z" transform="translate(-168.578 -15.999)" fill="#1c4da1"/>
    <path id="Path_184" data-name="Path 184" d="M328.017,105.814a.345.345,0,0,0,.087.353l.955.931-.225,1.314a.345.345,0,0,0,.5.363l1.18-.62,1.18.62a.345.345,0,0,0,.5-.363l-.225-1.314.955-.931a.345.345,0,0,0-.191-.588l-1.319-.192-.59-1.2a.345.345,0,0,0-.618,0l-.59,1.2-1.319.192A.345.345,0,0,0,328.017,105.814Zm1.876.23a.345.345,0,0,0,.26-.189l.361-.732.361.732a.345.345,0,0,0,.26.189l.807.117-.584.569a.345.345,0,0,0-.1.305l.138.8-.722-.38a.345.345,0,0,0-.321,0l-.722.38.138-.8a.345.345,0,0,0-.1-.305l-.584-.569Z" transform="translate(-314.554 -100.208)" fill="#1c4da1"/>
    <path id="Path_185" data-name="Path 185" d="M411.268,209.086a.345.345,0,0,0-.191.588l.614.6-.145.845a.345.345,0,0,0,.5.363l.759-.4.759.4a.345.345,0,0,0,.5-.363l-.145-.845.614-.6a.345.345,0,0,0-.191-.588l-.848-.123-.379-.769a.345.345,0,0,0-.618,0l-.379.769Zm1.387.344.15-.3.151.3a.345.345,0,0,0,.259.189l.336.049-.243.237a.345.345,0,0,0-.1.305l.057.335-.3-.158a.345.345,0,0,0-.321,0l-.3.158.057-.335a.345.345,0,0,0-.1-.305l-.243-.237.336-.049A.345.345,0,0,0,412.655,209.43Z" transform="translate(-393.951 -199.727)" fill="#1c4da1"/>
    <path id="Path_186" data-name="Path 186" d="M67.454,106.169l.955.931-.225,1.314a.345.345,0,0,0,.5.363l1.18-.62,1.18.62a.345.345,0,0,0,.5-.363l-.225-1.314.955-.931a.345.345,0,0,0-.191-.588l-1.319-.192-.59-1.2a.345.345,0,0,0-.618,0l-.59,1.2-1.319.192a.345.345,0,0,0-.191.588Zm1.789-.123a.345.345,0,0,0,.26-.189l.361-.732.361.732a.345.345,0,0,0,.26.189l.807.117-.584.569a.345.345,0,0,0-.1.305l.138.8-.722-.38a.345.345,0,0,0-.321,0l-.722.38.138-.8a.345.345,0,0,0-.1-.305l-.584-.569Z" transform="translate(-65.136 -100.209)" fill="#1c4da1"/>
    <path id="Path_187" data-name="Path 187" d="M16.108,209.673l.614.6-.145.845a.345.345,0,0,0,.5.363l.759-.4.759.4a.345.345,0,0,0,.5-.363l-.145-.845.614-.6a.345.345,0,0,0-.191-.588l-.848-.123-.379-.769a.345.345,0,0,0-.618,0l-.379.769-.849.123a.345.345,0,0,0-.191.588Zm1.318-.055a.345.345,0,0,0,.26-.189l.15-.3.15.3a.345.345,0,0,0,.26.189l.336.049-.243.237a.345.345,0,0,0-.1.305l.057.335-.3-.158a.345.345,0,0,0-.321,0l-.3.158.057-.335a.345.345,0,0,0-.1-.305l-.243-.237Z" transform="translate(-16.004 -199.727)" fill="#1c4da1"/>
    <path id="Path_188" data-name="Path 188" d="M144,288h1.034v.69H144Z" transform="translate(-138.484 -276.278)" fill="#1c4da1"/>
    <path id="Path_189" data-name="Path 189" d="M144,328h1.034v.69H144Z" transform="translate(-138.484 -314.554)" fill="#1c4da1"/>
    <path id="Path_190" data-name="Path 190" d="M144,368h1.034v.69H144Z" transform="translate(-138.484 -352.83)" fill="#1c4da1"/>
    <path id="Path_191" data-name="Path 191" d="M144,408h1.034v.69H144Z" transform="translate(-138.484 -391.106)" fill="#1c4da1"/>
    <path id="Path_192" data-name="Path 192" d="M35.307,185.309h-.69a1.381,1.381,0,0,0-1.379,1.379v.71a1.629,1.629,0,0,0-.69.283V186h-.69v1.724H29.446v-7.93H31.86v5.516h.69v-5.861a.345.345,0,0,0-.345-.345H29.446v-1.724a.345.345,0,0,0-.345-.345H28.067v-.69a.345.345,0,0,0-.345-.345H24.964a.345.345,0,0,0-.345.345v.69H23.585a.345.345,0,0,0-.345.345V179.1H20.482a.345.345,0,0,0-.345.345v2.069h.69v-1.724H23.24v7.93H20.827v-5.516h-.69v5.475a1.629,1.629,0,0,0-.69-.283v-.71a1.381,1.381,0,0,0-1.379-1.379h-.69A1.381,1.381,0,0,0,16,186.688v2.758a.345.345,0,0,0,.345.345h20a.345.345,0,0,0,.345-.345v-2.758A1.381,1.381,0,0,0,35.307,185.309Zm-10-8.619h2.069v1.379H25.309Zm-8.619,10a.69.69,0,0,1,.69-.69h.69a.69.69,0,0,1,.69.69v.71a1.64,1.64,0,0,0-1.379,1.617v.086h-.69Zm1.379,2.413v-.086a.949.949,0,0,1,.948-.948h.172a.949.949,0,0,1,.948.948v.086Zm2.758-.69H23.24v.69H20.827Zm3.1-10.688h.69v.69a.345.345,0,0,0,.345.345h2.758a.345.345,0,0,0,.345-.345v-.69h.69V189.1H27.722v-2.413a.345.345,0,0,0-.345-.345H25.309a.345.345,0,0,0-.345.345V189.1H23.93ZM25.654,189.1v-2.069h1.379V189.1Zm3.793-.69H31.86v.69H29.446Zm3.1.69v-.086a.949.949,0,0,1,.948-.948h.172a.949.949,0,0,1,.948.948v.086Zm3.448,0h-.69v-.086a1.64,1.64,0,0,0-1.379-1.617v-.71a.69.69,0,0,1,.69-.69h.69a.69.69,0,0,1,.69.69Z" transform="translate(-16 -169.104)" fill="#1c4da1"/>
    <path id="Path_193" data-name="Path 193" d="M344,368h1.034v.69H344Z" transform="translate(-329.864 -352.83)" fill="#1c4da1"/>
    <path id="Path_194" data-name="Path 194" d="M344,408h1.034v.69H344Z" transform="translate(-329.864 -391.106)" fill="#1c4da1"/>
    <path id="Path_195" data-name="Path 195" d="M344,288h1.034v.69H344Z" transform="translate(-329.864 -276.278)" fill="#1c4da1"/>
    <path id="Path_196" data-name="Path 196" d="M344,328h1.034v.69H344Z" transform="translate(-329.864 -314.554)" fill="#1c4da1"/>
  </g>
</svg>
