<svg id="vacation_1_" data-name="vacation (1)" xmlns="http://www.w3.org/2000/svg" width="17.838" height="17.262" viewBox="0 0 17.838 17.262">
  <path id="Path_197" data-name="Path 197" d="M24.831,16.863h-.144v-.575A.288.288,0,0,0,24.4,16H23.248a.288.288,0,0,0-.288.288v.575H21.235v-.575A.288.288,0,0,0,20.947,16H19.8a.288.288,0,0,0-.288.288v.575H17.782v-.575A.288.288,0,0,0,17.494,16H16.344a.288.288,0,0,0-.288.288v.575H14.33v-.575A.288.288,0,0,0,14.042,16H12.891a.288.288,0,0,0-.288.288v.575H10.877v-.575A.288.288,0,0,0,10.589,16H9.439a.288.288,0,0,0-.288.288v.575H9.007A1.008,1.008,0,0,0,8,17.87V30.529a1.015,1.015,0,0,0,1.043,1.007h.108a.288.288,0,0,0,.288.288h1.175a1.726,1.726,0,0,0,3.4,0h6.09a1.726,1.726,0,0,0,3.4,0H24.4a.288.288,0,0,0,.288-.288h.144a1.008,1.008,0,0,0,1.007-1.007V17.87A1.008,1.008,0,0,0,24.831,16.863Zm-1.295-.288h.575v1.151h-.575Zm-3.452,0h.575v1.151h-.575Zm-3.452,0h.575v1.151h-.575Zm-3.452,0h.575v1.151h-.575Zm-3.452,0H10.3v1.151H9.726Zm2.589,16.112a1.151,1.151,0,1,1,1.151-1.151,1.151,1.151,0,0,1-1.151,1.151Zm9.494,0a1.151,1.151,0,1,1,1.151-1.151,1.151,1.151,0,0,1-1.151,1.151Zm2.3-1.439h-.6a1.726,1.726,0,0,0-3.4,0h-6.09a1.726,1.726,0,0,0-3.4,0H9.726V30.1H10.3a.576.576,0,0,0,.575-.575v-.288a.576.576,0,0,0-.575-.575H9.726v-.233l.363-.918h4.24a.288.288,0,0,0,.288-.288v-2.3a.288.288,0,0,0-.288-.288H11.28a1.439,1.439,0,0,1,1.15-.575H22.673a1.436,1.436,0,0,1,1.122.539h-2.56a.288.288,0,0,0-.288.288v2.338a.288.288,0,0,0,.288.288h2.877ZM9.726,29.522v-.288H10.3v.288Zm.59-2.589L11,25.207h3.043v1.726Zm4.589-3.74h5.466v.288H14.9Zm-2.266-.575V22.33H22.1v.288Zm11.472,4.316H21.522V25.171h2.552a1.454,1.454,0,0,1,.037.324Zm1.151,3.6a.432.432,0,0,1-.432.432h-.144V25.494a2,2,0,0,0-.124-.7.241.241,0,0,0-.014-.036,2.017,2.017,0,0,0-1.875-1.281H20.947v-.288h1.439a.288.288,0,0,0,.288-.288v-.863a.288.288,0,0,0-.288-.288H12.352a.288.288,0,0,0-.288.288V22.9a.288.288,0,0,0,.288.288H14.33v.288h-1.9a2.016,2.016,0,0,0-1.84,1.2l0,.011L9.171,28.266a.288.288,0,0,0-.02.106v2.589H9.043a.441.441,0,0,1-.468-.432V19.165H25.262Zm0-11.94H8.575V17.87a.432.432,0,0,1,.432-.432h.144v.575a.288.288,0,0,0,.288.288h1.151a.288.288,0,0,0,.288-.288v-.575H12.6v.575a.288.288,0,0,0,.288.288h1.151a.288.288,0,0,0,.288-.288v-.575h1.726v.575a.288.288,0,0,0,.288.288h1.151a.288.288,0,0,0,.288-.288v-.575h1.726v.575a.288.288,0,0,0,.288.288h1.151a.288.288,0,0,0,.288-.288v-.575h1.726v.575a.288.288,0,0,0,.288.288H24.4a.288.288,0,0,0,.288-.288v-.575h.144a.432.432,0,0,1,.432.432Z" transform="translate(-8 -16)" fill="#1c4da1"/>
  <path id="Path_198" data-name="Path 198" d="M104.863,424a.863.863,0,1,0,.863.863A.863.863,0,0,0,104.863,424Zm0,1.151a.288.288,0,1,1,.288-.288A.288.288,0,0,1,104.863,425.151Z" transform="translate(-100.548 -409.327)" fill="#1c4da1"/>
  <path id="Path_199" data-name="Path 199" d="M368.863,424a.863.863,0,1,0,.863.863A.863.863,0,0,0,368.863,424Zm0,1.151a.288.288,0,1,1,.288-.288A.288.288,0,0,1,368.863,425.151Z" transform="translate(-355.053 -409.327)" fill="#1c4da1"/>
  <path id="Path_200" data-name="Path 200" d="M212.891,256h-4.6a.288.288,0,0,0-.288.288v2.3a.288.288,0,0,0,.288.288h4.6a.288.288,0,0,0,.288-.288v-2.3A.288.288,0,0,0,212.891,256Zm-4.316.575H210.3V258.3h-1.726ZM212.6,258.3h-1.726v-1.726H212.6Z" transform="translate(-200.807 -247.369)" fill="#1c4da1"/>
</svg>
